<?xml version="1.0" encoding="utf-8" ?>
<svg baseProfile="tiny" height="125" version="1.2" width="249" xmlns="http://www.w3.org/2000/svg" xmlns:ev="http://www.w3.org/2001/xml-events" xmlns:xlink="http://www.w3.org/1999/xlink"><defs /><path d="M 69,74 68,75 67,75 66,76 66,81 68,83 72,83 73,82 74,82 74,80 75,79 75,78 74,77 74,76 72,74 Z" fill="black" stroke="none" /><path d="M 26,58 25,59 24,59 22,61 22,65 24,67 29,67 30,66 31,66 31,65 32,64 32,62 31,61 31,60 30,59 29,59 28,58 Z" fill="black" stroke="none" /><path d="M 99,51 96,54 96,57 97,58 97,59 98,60 103,60 105,58 105,54 104,53 104,52 103,52 102,51 Z" fill="black" stroke="none" /><path d="M 202,42 202,83 209,83 209,70 210,69 225,69 226,68 227,68 228,67 229,67 232,64 232,63 233,62 233,60 234,59 234,52 233,51 233,49 232,48 232,47 230,45 229,45 227,43 223,43 222,42 Z" fill="black" stroke="none" /><path d="M 169,42 169,83 196,83 196,78 176,78 175,77 175,42 Z" fill="black" stroke="none" /><path d="M 126,42 125,43 125,83 132,83 132,66 133,65 153,65 154,66 154,83 161,83 161,42 155,42 154,43 154,59 153,60 133,60 132,59 132,42 Z" fill="black" stroke="none" /><path d="M 112,42 112,69 118,69 119,68 119,43 118,42 Z" fill="black" stroke="none" /><path d="M 83,42 83,83 89,83 89,42 Z" fill="black" stroke="none" /><path d="M 53,42 52,43 52,83 59,83 59,42 Z" fill="black" stroke="none" /><path d="M 40,42 39,43 39,83 46,83 46,42 Z" fill="black" stroke="none" /><path d="M 8,42 8,83 15,83 15,43 14,42 Z" fill="black" stroke="none" /></svg>